<svg xmlns="http://www.w3.org/2000/svg" viewBox="0 0 314.36 419.64"><defs><style>.cls-1{fill:#dbdbdb;}.cls-2{fill:#9c9b9b;}.cls-3{fill:#727272;}.cls-4,.cls-6{fill:#fff;}.cls-5{fill:#111110;}.cls-6{opacity:0.74;}.cls-7{fill:#25378c;}.cls-8{fill:#489e4b;}.cls-9{fill:#e94c4c;}.cls-10{fill:#506eb3;}.cls-11{fill:#3e61aa;}.cls-12{fill:#e5d16f;}.cls-13{fill:#9e8d45;}.cls-14{fill:#bc3b3b;}.cls-15{fill:#4dad33;}.cls-16{fill:#439335;}.cls-17{fill:#bfbebe;}.cls-18{fill:#434898;}.cls-19{fill:#ea5564;}</style></defs><g id="Casque"><rect class="cls-1" x="68.49" y="184.99" width="177.51" height="155.41" rx="19.37"/><circle class="cls-2" cx="229.17" cy="213.27" r="6.02"/><circle class="cls-3" cx="228.98" cy="213.27" r="3.49"/><rect class="cls-4" x="501.4" y="437.77" width="50.06" height="152.63" rx="18.26" transform="translate(980.06 438.95) rotate(147.13)"/><rect class="cls-4" x="297.95" y="437.77" width="50.06" height="152.63" rx="18.26" transform="translate(63.15 -314.23) rotate(32.87)"/><path class="cls-4" d="M525,606.7V491c2.66-65.61-67-57.34-67-57.34H391.63s-69.71-8.27-67.05,57.34V606.7S394.44,683.39,525,606.7Z" transform="translate(-267.53 -221.24)"/><circle class="cls-2" cx="90.58" cy="206.06" r="6.02"/><circle class="cls-3" cx="90.4" cy="206.06" r="3.49"/><polyline class="cls-4" points="124.1 207.94 124.1 223.72 190.39 223.72 190.39 200.86 124.1 200.86"/><circle class="cls-4" cx="157.24" cy="106.14" r="106.14"/><path class="cls-5" d="M513,327.39a88.25,88.25,0,0,1-176.5,0c0-48.74,39.51-55.1,88.25-55.1S513,278.65,513,327.39Z" transform="translate(-267.53 -221.24)"/><rect class="cls-4" x="256.31" y="82.6" width="14.16" height="55.05" rx="4.83"/><rect class="cls-4" x="42.59" y="82.64" width="14.16" height="55.05" rx="4.83"/><path class="cls-6" d="M460.16,286s42,4.34,42,30.9-12.07,65.68-42,83.54C460.16,400.42,541.29,312.05,460.16,286Z" transform="translate(-267.53 -221.24)"/><circle class="cls-7" cx="93.53" cy="306.76" r="6.95"/><circle class="cls-8" cx="93.53" cy="324.09" r="6.95"/><circle class="cls-9" cx="93.53" cy="341.42" r="6.95"/><circle class="cls-10" cx="174.83" cy="270.38" r="9.33"/><circle class="cls-11" cx="174.54" cy="270.38" r="5.4"/><circle class="cls-12" cx="174.83" cy="297.95" r="9.33"/><circle class="cls-13" cx="174.54" cy="297.95" r="5.4"/><path class="cls-9" d="M442.09,494.47a3.44,3.44,0,0,1-3.3-2.51c-1.65-6,3.54-33.7,19-49.7,10.4-10.78,23.83-14.59,38.85-11a3.41,3.41,0,1,1-1.57,6.63c-12.34-2.93-23-.13-31.58,8.32-14.86,14.58-18.86,40.46-18.09,44a3.4,3.4,0,0,1-2.38,4.18A3.54,3.54,0,0,1,442.09,494.47Z" transform="translate(-267.53 -221.24)"/><path class="cls-14" d="M443.86,492.51a1.46,1.46,0,0,1-1.41-1.07c-1.23-4.45,3-30.73,17.82-46.1,9.68-10,21.68-13.43,35.68-10.11a1.47,1.47,0,0,1-.68,2.85c-12.92-3.08-24,.05-32.9,9.29-14.45,15-18,40.18-17.1,43.29a1.48,1.48,0,0,1-1,1.8A1.31,1.31,0,0,1,443.86,492.51Z" transform="translate(-267.53 -221.24)"/><path class="cls-15" d="M442.07,522.6h-.26c-46.43-3.46-67.73-29.21-77.42-50.21a110,110,0,0,1-9.88-44.92,3.41,3.41,0,0,1,6.81.21,105.21,105.21,0,0,0,9.36,42.08c13,28,37.11,43.47,71.64,46a3.41,3.41,0,0,1-.25,6.81Z" transform="translate(-267.53 -221.24)"/><path class="cls-16" d="M440.88,522.47h-.11c-45.49-3.39-66.33-28.56-75.8-49.08a107.88,107.88,0,0,1-9.7-44,1.49,1.49,0,0,1,1.5-1.42,1.46,1.46,0,0,1,1.42,1.5,106.74,106.74,0,0,0,9.48,42.83c13.31,28.75,38,44.66,73.32,47.3a1.46,1.46,0,0,1-.11,2.91Z" transform="translate(-267.53 -221.24)"/><path class="cls-17" d="M443.4,547.3" transform="translate(-267.53 -221.24)"/><path class="cls-18" d="M196.32,242h6.53a0,0,0,0,1,0,0v13.41a0,0,0,0,1,0,0h-6.53a1,1,0,0,1-1-1V243.06A1,1,0,0,1,196.32,242Z"/><rect class="cls-4" x="202.85" y="242.02" width="7.58" height="13.41"/><path class="cls-19" d="M210.43,242h6.84a.74.74,0,0,1,.74.74v11.93a.74.74,0,0,1-.74.74h-6.84a0,0,0,0,1,0,0V242A0,0,0,0,1,210.43,242Z"/></g><g id="Fusée"><path class="cls-4" d="M324.58,606.7,324.51,622s63.66,17.74,86.36,18.76,79-5.65,95.68-11.7,18.48-6.8,18.48-6.8L525,606.7" transform="translate(-267.53 -221.24)"/></g></svg>