<?xml version="1.0" encoding="utf-8"?>
<!-- Generator: Adobe Illustrator 25.4.1, SVG Export Plug-In . SVG Version: 6.00 Build 0)  -->
<svg version="1.1" id="Calque_1" xmlns="http://www.w3.org/2000/svg" xmlns:xlink="http://www.w3.org/1999/xlink" x="0px" y="0px"
	 viewBox="0 0 462 370" style="enable-background:new 0 0 462 370;" xml:space="preserve">
<style type="text/css">
	.st0{fill:#F9D915;}
	.st1{fill:#FFFFFF;}
</style>
<path class="st0" d="M113.3,57c-44.4,0-80.4,36-80.4,80.4h34.5c0-25.3,20.5-45.8,45.8-45.8c10.4,0.1,20.8,1.9,30.6,5.4
	c5-10.9,12.1-20.7,20.7-29.1C148.4,60.9,131,57.1,113.3,57z"/>
<path class="st0" d="M348.6,278.5c-10.2-0.1-20.2-1.9-29.8-5.5c-10.8-4.2-21.1-9.6-30.6-16.1c-16.1-10.7-32-24.2-48.3-38.1l-5.5-4.6
	c4.2-6.8,8.1-13.9,11.8-21c3-5.8,6.1-11.4,9.3-16.8c23.8,18.9,48.6,35,75.8,40c5.7,1,11.5,1.6,17.2,1.6c44.3,0,80.3-36,80.4-80.3
	C429,93,393,57.1,348.6,57c-14.3,0-29.8,5.4-45.9,15.8c-9,5.9-17.5,12.6-25.2,20l-1.7,1.7c-9.9,9.6-19,19.8-27.3,30.8
	c-16-13.6-32.9-27.8-51-39.5c-9.9,6.5-17.7,15.7-22.6,26.5c18.5,11.6,36.3,26.7,53.9,41.7c-4.6,7.5-9,15.3-13.2,23.2
	c-2.6,5.1-5.4,10.1-8.2,14.9c-11.9-9.4-24.6-17.7-37.9-24.8c-10.9-5.8-22.5-10-34.5-12.6c-7.1-1.5-14.4-2.2-21.7-2.3
	c-44.4,0.1-80.3,36-80.4,80.4c0.1,44.4,36,80.3,80.4,80.4c14.4,0,30.1-5.5,46.4-16.1c-7.8-8.6-13.9-18.6-18.1-29.4
	c-10.8,7.2-20.6,10.9-28.3,10.9c-25.3,0-45.8-20.5-45.8-45.8c0-25.3,20.5-45.8,45.8-45.8c7.4,0,14.7,1.1,21.7,3.3
	c12.3,4,23.9,9.7,34.5,17c6.3,4.1,12.6,8.7,18.9,13.7c-5.6,7.5-11.6,14.7-17.9,21.6c2,12.3,7.6,23.7,16.2,32.7
	c10.3-10.1,19.8-20.9,28.5-32.4l2.5,2.1c15.9,13.5,31.9,27.1,48.8,38.7c10.1,7,20.8,13.1,32,18.2c15.8,7.3,33,11.1,50.4,11.2
	c44.4,0,80.3-36,80.4-80.4h-34.7C394.4,257.9,373.9,278.4,348.6,278.5z M292.2,126.8c8.6-9.3,18.2-17.7,28.7-24.8
	c10.5-6.9,20.1-10.5,27.7-10.5c25.3,0,45.9,20.6,45.8,45.9c0,25.3-20.5,45.8-45.8,45.8c-24.4,0-48.6-15.7-73.7-35.8
	C280.3,140.2,286.1,133.4,292.2,126.8z"/>
<path class="st1" d="M302.7,72.7c-9,5.9-17.5,12.6-25.2,20l-1.7,1.7c-11.6-12.1-27.7-18.9-44.4-18.9c-12,0-23.8,3.5-33.9,10.1
	c-9.9,6.5-17.7,15.7-22.6,26.5c-3.5,7.9-5.4,16.5-5.3,25.2v29.7c-10.9-5.8-22.5-10-34.5-12.6v-17.2c0-14,3-27.8,8.9-40.4
	c5-10.9,12.1-20.7,20.7-29.1C182.5,50.7,206.4,41,231.3,41C258.5,41,284.5,52.5,302.7,72.7z"/>
<path class="st1" d="M298.3,301.8c-17.9,17.5-42,27.2-67,27.2c-27.4,0-53.4-11.6-71.7-32c-7.8-8.6-13.9-18.6-18.1-29.4
	c-4.3-11.1-6.6-23-6.5-34.9v-42.5c12.3,4,23.9,9.7,34.5,17v25.5c0,3.3,0.3,6.6,0.8,9.9c2,12.3,7.6,23.7,16.2,32.7
	c11.7,12.3,27.8,19.3,44.8,19.2c12.5,0,24.7-3.8,35-10.9C276.4,290.6,287.1,296.7,298.3,301.8z"/>
<path class="st1" d="M327.7,232.6c0,13.9-3,27.7-8.8,40.3c-10.8-4.2-21.1-9.6-30.6-16.1c3.2-7.6,4.9-15.8,4.9-24.1L327.7,232.6z"/>
<path class="st1" d="M327.7,137.4h-34.5c0-3.5-0.3-7.1-0.9-10.5c8.6-9.3,18.2-17.7,28.7-24.8C325.4,113.3,327.7,125.3,327.7,137.4z"
	/>
</svg>
