<svg id="Calque_1" data-name="Calque 1" xmlns="http://www.w3.org/2000/svg" viewBox="0 0 1150.73 262.91"><defs><style>.cls-1{fill:#fff;}.cls-2{fill:#f9d915;}</style></defs><path class="cls-1" d="M-8.1,543a42.58,42.58,0,0,1-17.33-18.16q-6.06-11.8-6.06-28V458.25q0-16.17,6.06-28A42.9,42.9,0,0,1-8.1,412.07q11.28-6.39,26.58-6.39a48.68,48.68,0,0,1,23,5.42,46.43,46.43,0,0,1,17.14,15.64A63.16,63.16,0,0,1,68,450.9H44.14A34.06,34.06,0,0,0,38.62,439a26.5,26.5,0,0,0-9-7.79,23.71,23.71,0,0,0-11.18-2.71,25.87,25.87,0,0,0-13.9,3.63,24,24,0,0,0-9,10.31,36.28,36.28,0,0,0-3.2,15.78v38.64a36.21,36.21,0,0,0,3.2,15.78,23.63,23.63,0,0,0,9.05,10.26,26.12,26.12,0,0,0,13.9,3.59,24.63,24.63,0,0,0,11.28-2.62,25.42,25.42,0,0,0,9-7.65,32,32,0,0,0,5.43-12.1H68a64.23,64.23,0,0,1-9.45,24.16A46.48,46.48,0,0,1,41.38,544a48.52,48.52,0,0,1-22.9,5.42Q3.18,549.37-8.1,543Z" transform="translate(479.74 -353.93)"/><path class="cls-1" d="M82.48,524.29H106.1v23.63H82.48Z" transform="translate(479.74 -353.93)"/><path class="cls-1" d="M133.22,407.13h23.14V547.92H133.22Zm10.84,118.61h81.53v22.18H144.06Z" transform="translate(479.74 -353.93)"/><path class="cls-1" d="M244.28,407.13h23v23.14h-23Zm0,40.28h23V547.92h-23Z" transform="translate(479.74 -353.93)"/><path class="cls-1" d="M298.5,541.67q-8.62-7.7-8.62-23.38,0-14.91,8.72-22.37t26.14-7.46h26.92l1.35,18H324.84q-6.88,0-10.32,2.91c-2.29,1.94-3.43,4.9-3.43,8.91q0,6.29,4.45,9.34t13.46,3q11,0,16.41-2.42t5.38-7.55l2,14.33a17,17,0,0,1-5.76,7.94,28.09,28.09,0,0,1-9.93,4.79,47.49,47.49,0,0,1-12.68,1.6Q307.11,549.37,298.5,541.67Zm52.29-57.47q0-8.42-5-13.07t-14.09-4.64a36.73,36.73,0,0,0-11.43,1.83,35.13,35.13,0,0,0-10.06,5.14l-15.4-13a39.1,39.1,0,0,1,15.49-10.7,57,57,0,0,1,21.3-3.82q12.78,0,21.89,4.4a31.28,31.28,0,0,1,13.89,12.78q4.8,8.39,4.79,20.19v64.59H350.79Z" transform="translate(479.74 -353.93)"/><path class="cls-1" d="M413.09,544.57a31.1,31.1,0,0,1-11.71-14.42q-4-9.45-4-22.8V488.17q0-13.35,4-22.89a31,31,0,0,1,11.57-14.53q7.61-5,18.25-5a27.18,27.18,0,0,1,15.54,4.75A33.73,33.73,0,0,1,458,463.87l-2,21.4a22,22,0,0,0-2-9.88A14.1,14.1,0,0,0,448,469.2a19.22,19.22,0,0,0-9.39-2.13q-8.62,0-13.37,5.61t-4.74,15.69v19q0,10,4.74,15.44t13.37,5.47a18.9,18.9,0,0,0,9.39-2.18,14.38,14.38,0,0,0,5.91-6.24,21.76,21.76,0,0,0,2-9.78l1.35,22.07a27.27,27.27,0,0,1-9.63,12.64,26.65,26.65,0,0,1-16,4.79Q420.79,549.56,413.09,544.57Zm1,40a33.59,33.59,0,0,1-14.33-11.86l15.59-14.23a24.18,24.18,0,0,0,8.66,7,24.46,24.46,0,0,0,10.61,2.42q9.87,0,15.59-5.37t5.71-15.16V447.41h23.14v97.5q0,13.85-5.18,23.73a34.6,34.6,0,0,1-15.11,15q-9.92,5.15-23.86,5.14A49.42,49.42,0,0,1,414.11,584.56Z" transform="translate(479.74 -353.93)"/><path class="cls-1" d="M507.16,447.41h24.11V547.92H507.16Zm50.25,22a21.72,21.72,0,0,0-7.84-1.31q-8.72,0-13.51,5.18t-4.79,14.38l-2-22.75a35.82,35.82,0,0,1,11.37-14,26.12,26.12,0,0,1,15.45-5,34,34,0,0,1,11.91,2,26.44,26.44,0,0,1,9.29,5.86l-14.14,19.46A14.85,14.85,0,0,0,557.41,469.44Z" transform="translate(479.74 -353.93)"/><path class="cls-1" d="M607.66,544.14a35.54,35.54,0,0,1-15.39-15.35q-5.32-10.11-5.33-24.45V493q0-14.91,5.09-25.47a35.84,35.84,0,0,1,14.81-16.07q9.74-5.52,23.39-5.52,12.87,0,22,6.44t14,18.64Q671,483.24,671,500.47v6.59H602.73V490.11h46.76l-.09-1.06q-1-10.56-5.91-16.37t-13.26-5.81q-10.47,0-16.17,6.54T608.34,492v12.78q0,11.43,6.2,17.58T632,528.45a30.75,30.75,0,0,0,11.28-2.17,34.11,34.11,0,0,0,10-6.06l15.1,14.14a56.14,56.14,0,0,1-17.18,11.09A50.27,50.27,0,0,1,632,549.37Q617.74,549.37,607.66,544.14Z" transform="translate(479.74 -353.93)"/><path class="cls-2" d="M-348.86,411.7A46.31,46.31,0,0,0-395.12,458h19.87a26.42,26.42,0,0,1,26.39-26.39,53.49,53.49,0,0,1,17.63,3.12A55.62,55.62,0,0,1-319.31,418,75.71,75.71,0,0,0-348.86,411.7Z" transform="translate(479.74 -353.93)"/><path class="cls-2" d="M-213.39,539.19A49.4,49.4,0,0,1-230.52,536a86,86,0,0,1-17.63-9.29c-9.25-6.14-18.42-13.93-27.82-21.93l-3.14-2.67c2.39-3.93,4.66-8,6.81-12.11,1.73-3.36,3.53-6.59,5.37-9.69,13.7,10.87,28,20.17,43.62,23a55.38,55.38,0,0,0,9.92.91A46.32,46.32,0,0,0-167.12,458a46.32,46.32,0,0,0-46.27-46.26c-8.21,0-17.16,3.1-26.42,9.08a102.27,102.27,0,0,0-14.53,11.52l-1,.95A156.43,156.43,0,0,0-271.06,451c-9.21-7.82-18.93-16-29.36-22.76a35.81,35.81,0,0,0-13,15.26c10.65,6.68,20.92,15.38,31,24-2.66,4.32-5.2,8.8-7.57,13.37q-2.28,4.43-4.7,8.55a145,145,0,0,0-21.84-14.28,77.13,77.13,0,0,0-19.87-7.24,61.5,61.5,0,0,0-12.5-1.3,46.32,46.32,0,0,0-46.26,46.27,46.32,46.32,0,0,0,46.26,46.26c8.28,0,17.34-3.16,26.7-9.25a55.19,55.19,0,0,1-10.43-16.92c-6.21,4.12-11.83,6.29-16.27,6.29a26.41,26.41,0,0,1-26.39-26.38,26.42,26.42,0,0,1,26.39-26.39,43.46,43.46,0,0,1,12.5,1.9,76.17,76.17,0,0,1,19.87,9.79c3.62,2.38,7.23,5,10.86,7.88A148.89,148.89,0,0,1-316,518.48a35.5,35.5,0,0,0,9.34,18.83,158.78,158.78,0,0,0,16.39-18.67l1.45,1.23c9.13,7.76,18.37,15.62,28.08,22.25a116.34,116.34,0,0,0,18.43,10.48,70.73,70.73,0,0,0,29,6.47,46.32,46.32,0,0,0,46.27-46.26H-187A26.41,26.41,0,0,1-213.39,539.19Zm-32.46-87.29a94.48,94.48,0,0,1,16.54-14.26c6.07-4,11.55-6.07,15.92-6.07A26.42,26.42,0,0,1-187,458a26.42,26.42,0,0,1-26.39,26.39c-14.07,0-28-9.05-42.43-20.63A146.81,146.81,0,0,1-245.85,451.9Z" transform="translate(479.74 -353.93)"/><path class="cls-1" d="M-239.81,420.78a102.27,102.27,0,0,0-14.53,11.52l-1,.95a35.5,35.5,0,0,0-25.57-10.86,35.37,35.37,0,0,0-19.51,5.83,35.81,35.81,0,0,0-13,15.26A35.21,35.21,0,0,0-316.49,458v17.12a77.13,77.13,0,0,0-19.87-7.24V458a54.88,54.88,0,0,1,5.13-23.27A55.62,55.62,0,0,1-319.31,418a55.31,55.31,0,0,1,38.4-15.47A55.33,55.33,0,0,1-239.81,420.78Z" transform="translate(479.74 -353.93)"/><path class="cls-1" d="M-242.34,552.6a55.23,55.23,0,0,1-38.57,15.66,55.3,55.3,0,0,1-41.25-18.44,55.19,55.19,0,0,1-10.43-16.92,55,55,0,0,1-3.77-20.09V488.32a76.17,76.17,0,0,1,19.87,9.79v14.7a35.37,35.37,0,0,0,.46,5.67,35.5,35.5,0,0,0,9.34,18.83,35.49,35.49,0,0,0,25.78,11.08,35.4,35.4,0,0,0,20.14-6.27A116.34,116.34,0,0,0-242.34,552.6Z" transform="translate(479.74 -353.93)"/><path class="cls-1" d="M-225.46,512.81A55.15,55.15,0,0,1-230.52,536a86,86,0,0,1-17.63-9.29,35.25,35.25,0,0,0,2.82-13.86Z" transform="translate(479.74 -353.93)"/><path class="cls-1" d="M-225.46,458h-19.87a35.66,35.66,0,0,0-.52-6.06,94.48,94.48,0,0,1,16.54-14.26A55.14,55.14,0,0,1-225.46,458Z" transform="translate(479.74 -353.93)"/><path class="cls-1" d="M-214,353.93H-348.29c-72.49,0-131.45,59-131.45,131.45s59,131.47,131.45,131.47H-214c72.49,0,131.47-59,131.47-131.47S-141.48,353.93-214,353.93Zm0,243H-348.29A111.72,111.72,0,0,1-459.88,485.38,111.71,111.71,0,0,1-348.29,373.81H-214A111.71,111.71,0,0,1-102.38,485.38,111.72,111.72,0,0,1-214,597Z" transform="translate(479.74 -353.93)"/></svg>